<svg width="11" height="12" viewBox="0 0 11 12" fill="none" xmlns="http://www.w3.org/2000/svg">
<g clip-path="url(#clip0_86_4066)">
<mask id="mask0_86_4066" style="mask-type:luminance" maskUnits="userSpaceOnUse" x="0" y="0" width="11" height="12">
<path d="M10.5331 0H0.933105V12H10.5331V0Z" fill="white"/>
</mask>
<g mask="url(#mask0_86_4066)">
<path d="M10.5331 4.20001C10.5331 4.36251 10.4737 4.50313 10.355 4.62188L6.15498 8.82188C6.03623 8.94063 5.89561 9.00001 5.73311 9.00001C5.57061 9.00001 5.42998 8.94063 5.31123 8.82188L1.11123 4.62188C0.99248 4.50313 0.933105 4.36251 0.933105 4.20001C0.933105 4.03751 0.99248 3.89688 1.11123 3.77813C1.22998 3.65938 1.37061 3.60001 1.53311 3.60001H9.93311C10.0956 3.60001 10.2362 3.65938 10.355 3.77813C10.4737 3.89688 10.5331 4.03751 10.5331 4.20001Z" fill="#A5A5A5"/>
</g>
</g>
<defs>
<clipPath id="clip0_86_4066">
<rect width="11" height="12" fill="white"/>
</clipPath>
</defs>
</svg>
