<svg width="38" height="34" viewBox="0 0 38 34" fill="none" xmlns="http://www.w3.org/2000/svg">
<g clip-path="url(#clip0_86_4825)">
<path d="M22.6201 16.6265L36.4814 4.19313C36.8627 3.85086 37.0731 3.39424 37.0737 2.90734C37.0737 2.42017 36.8633 1.96301 36.4814 1.62129L35.2667 0.53205C34.8848 0.188976 34.3757 0.00108337 33.8323 0.00108337C33.2898 0.00108337 32.7807 0.188976 32.3988 0.53205L18.5374 12.9646L4.6755 0.53205C4.29422 0.188976 3.78483 0.00108337 3.24169 0.00108337C2.69914 0.00108337 2.18976 0.188976 1.80847 0.53205L0.593179 1.62129C-0.197726 2.33069 -0.197726 3.48454 0.593179 4.19313L14.4548 16.6265L0.593179 29.0593C0.211591 29.4021 0.00150706 29.8588 0.00150706 30.3457C0.00150706 30.8326 0.211591 31.2892 0.593179 31.6317L1.80817 32.721C2.18946 33.0638 2.69914 33.2519 3.24138 33.2519C3.78453 33.2519 4.29392 33.0638 4.6752 32.721L18.5371 20.2881L32.3985 32.721C32.7804 33.0638 33.2895 33.2519 33.832 33.2519H33.8326C34.3754 33.2519 34.8845 33.0638 35.2664 32.721L36.4811 31.6317C36.8624 31.2895 37.0728 30.8326 37.0728 30.3457C37.0728 29.8588 36.8624 29.4021 36.4811 29.0596L22.6201 16.6265Z" fill="white"/>
</g>
<defs>
<clipPath id="clip0_86_4825">
<rect width="37.0737" height="33.253" fill="white"/>
</clipPath>
</defs>
</svg>
