<svg width="32" height="32" viewBox="0 0 32 32" fill="none" xmlns="http://www.w3.org/2000/svg">
<g clip-path="url(#clip0_72_1635)">
<path d="M29.1875 20.6875C28.4881 20.6875 27.8552 20.9534 27.3628 21.3775L22.0925 18.4021C22.3877 17.6562 22.5625 16.8496 22.5625 16C22.5625 14.3494 21.9289 12.8569 20.9189 11.7024L26.2405 5.49237C26.5547 5.61406 26.8931 5.6875 27.25 5.6875C28.8008 5.6875 30.0625 4.42575 30.0625 2.875C30.0625 1.32425 28.8008 0 27.25 0C25.6992 0 24.4375 1.32419 24.4375 2.875C24.4375 3.38406 24.584 3.85525 24.8213 4.26756L19.5046 10.4719C18.4883 9.82519 17.291 9.4375 16 9.4375C14.9908 9.4375 14.0452 9.68556 13.1902 10.0945L10.7446 6.42675C11.0964 5.957 11.3125 5.38062 11.3125 4.75C11.3125 3.19919 10.0507 1.9375 8.5 1.9375C6.94925 1.9375 5.6875 3.19919 5.6875 4.75C5.6875 6.30081 6.94919 7.5625 8.5 7.5625C8.73781 7.5625 8.96481 7.52394 9.18556 7.46825L11.6326 11.1384C10.2957 12.3406 9.4375 14.0647 9.4375 16C9.4375 16.5867 9.53981 17.1453 9.685 17.6868L4.87113 19.7231C4.35694 19.167 3.62794 18.8125 2.8125 18.8125C1.26169 18.8125 0 20.0742 0 21.625C0 23.1758 1.26169 24.4375 2.8125 24.4375C4.36331 24.4375 5.625 23.1758 5.625 21.625C5.625 21.5639 5.61081 21.5071 5.60719 21.447L10.4209 19.4106C11.5742 21.29 13.6294 22.5579 15.99 22.5615L16.5735 26.7092C15.6799 27.1809 15.0625 28.1086 15.0625 29.1875C15.0625 30.7383 16.3242 32 17.875 32C19.4258 32 20.6875 30.7383 20.6875 29.1875C20.6875 27.8262 19.7148 26.6887 18.4282 26.4309L17.8425 22.2666C19.1697 21.8748 20.3142 21.0847 21.1472 20.0212L26.4253 23.0014C26.3959 23.1638 26.375 23.3294 26.375 23.5C26.375 25.0508 27.6367 26.3125 29.1875 26.3125C30.7383 26.3125 32 25.0508 32 23.5C32 21.9492 30.7383 20.6875 29.1875 20.6875Z" fill="white"/>
</g>
<defs>
<clipPath id="clip0_72_1635">
<rect width="32" height="32" fill="white"/>
</clipPath>
</defs>
</svg>
