<svg width="58" height="47" viewBox="0 0 58 47" fill="none" xmlns="http://www.w3.org/2000/svg">
<g clip-path="url(#clip0_86_4177)">
<path opacity="0.5" d="M46.1507 26.9193C46.1507 39.6149 38.4628 45.9862 29.0116 45.9862C19.537 45.9862 11.8726 39.6149 11.8726 26.9193C11.8726 14.2238 29.0116 0 29.0116 0C29.0116 0 46.1507 14.2238 46.1507 26.9193Z" fill="white"/>
<path opacity="0.5" d="M24.8504 25.9788C34.8658 30.0226 38.2278 36.0883 36.2059 41.0725C34.184 46.0567 27.5541 48.0785 17.5387 44.0348C7.54683 39.9675 0 26.402 0 26.402C0 26.402 14.8585 21.9351 24.8504 25.9788Z" fill="white"/>
<path opacity="0.5" d="M33.1497 25.9789C23.1578 30.0227 19.7724 36.0883 21.7942 41.0725C23.8161 46.0567 30.4696 48.0786 40.4615 44.0348C50.4534 39.9675 58.0002 26.4021 58.0002 26.4021C58.0002 26.4021 43.1416 21.9351 33.1497 25.9789Z" fill="white"/>
<path opacity="0.5" d="M32.2327 20.2894C39.8735 30.4223 38.9096 39.1212 32.985 43.5881C27.0604 48.0551 18.4321 46.5975 10.7913 36.4645C3.1269 26.308 5.28984 6.86499 5.28984 6.86499C5.28984 6.86499 24.5918 10.1329 32.2327 20.2894Z" fill="white"/>
<path opacity="0.5" d="M25.7673 20.2894C18.1264 30.4224 19.0903 39.1212 25.0149 43.5882C30.9396 48.0551 39.5914 46.5975 47.2322 36.4645C54.8731 26.3081 52.7101 6.86499 52.7101 6.86499C52.7101 6.86499 33.4081 10.133 25.7673 20.2894Z" fill="white"/>
</g>
<defs>
<clipPath id="clip0_86_4177">
<rect width="58" height="47" fill="white"/>
</clipPath>
</defs>
</svg>
