<svg width="21" height="21" viewBox="0 0 21 21" fill="none" xmlns="http://www.w3.org/2000/svg">
<g clip-path="url(#clip0_79_2143)">
<path d="M20.7434 19.5065L14.7716 13.5347C15.9283 12.1058 16.6248 10.2902 16.6248 8.31274C16.6248 3.72953 12.8956 0.000305176 8.31239 0.000305176C3.72919 0.000305176 0 3.72949 0 8.3127C0 12.8959 3.72923 16.6251 8.31243 16.6251C10.2899 16.6251 12.1055 15.9286 13.5344 14.7719L19.5062 20.7437C19.6768 20.9143 19.9008 21.0001 20.1248 21.0001C20.3488 21.0001 20.5728 20.9143 20.7434 20.7437C21.0856 20.4016 21.0856 19.8486 20.7434 19.5065ZM8.31243 14.8751C4.69345 14.8751 1.75 11.9317 1.75 8.3127C1.75 4.69372 4.69345 1.75026 8.31243 1.75026C11.9314 1.75026 14.8749 4.69372 14.8749 8.3127C14.8749 11.9317 11.9314 14.8751 8.31243 14.8751Z" fill="white"/>
</g>
<defs>
<clipPath id="clip0_79_2143">
<rect width="21" height="21" fill="white"/>
</clipPath>
</defs>
</svg>
