<svg width="20" height="19" viewBox="0 0 20 19" fill="none" xmlns="http://www.w3.org/2000/svg">
<g clip-path="url(#clip0_169_2228)">
<path d="M1.17734 9.08582L5.51953 10.7065L7.20022 16.1116C7.30776 16.4577 7.73108 16.5857 8.01205 16.356L10.4325 14.3828C10.6862 14.1761 11.0476 14.1658 11.3127 14.3582L15.6783 17.5277C15.9788 17.7462 16.4047 17.5815 16.48 17.2183L19.678 1.83533C19.7603 1.43859 19.3705 1.10761 18.9927 1.25372L1.17225 8.12832C0.732475 8.29792 0.736307 8.92055 1.17734 9.08582ZM6.92936 9.84375L15.4156 4.61706C15.5681 4.5234 15.7251 4.72962 15.5941 4.85111L8.59046 11.3613C8.34428 11.5905 8.18548 11.8971 8.14051 12.23L7.90193 13.998C7.87034 14.2341 7.53873 14.2575 7.47359 14.029L6.55605 10.805C6.45096 10.4373 6.6041 10.0445 6.92936 9.84375Z" fill="#fff"/>
</g>
<defs>
<clipPath id="clip0_169_2228">
<rect width="18.8447" height="18.8447" fill="#fff" transform="translate(0.844727)"/>
</clipPath>
</defs>
</svg>
